<mxfile host="app.diagrams.net" agent="Mozilla/5.0 (Windows NT 10.0; Win64; x64) AppleWebKit/537.36 (KHTML, like Gecko) Chrome/126.0.0.0 Safari/537.36" version="24.7.7">
  <diagram name="Page-1" id="pZLYcIQd4PieBv3HOB3N">
    <mxGraphModel dx="1434" dy="765" grid="1" gridSize="10" guides="1" tooltips="1" connect="1" arrows="1" fold="1" page="1" pageScale="1" pageWidth="850" pageHeight="1100" math="0" shadow="0">
      <root>
        <mxCell id="0" />
        <mxCell id="1" parent="0" />
        <mxCell id="eg5AnFYm-MPcN6h97bqV-6" style="edgeStyle=orthogonalEdgeStyle;rounded=0;orthogonalLoop=1;jettySize=auto;html=1;entryX=0.5;entryY=0;entryDx=0;entryDy=0;" edge="1" parent="1" source="eg5AnFYm-MPcN6h97bqV-1" target="eg5AnFYm-MPcN6h97bqV-5">
          <mxGeometry relative="1" as="geometry" />
        </mxCell>
        <mxCell id="eg5AnFYm-MPcN6h97bqV-8" style="edgeStyle=orthogonalEdgeStyle;rounded=0;orthogonalLoop=1;jettySize=auto;html=1;" edge="1" parent="1" source="eg5AnFYm-MPcN6h97bqV-38" target="eg5AnFYm-MPcN6h97bqV-3">
          <mxGeometry relative="1" as="geometry" />
        </mxCell>
        <mxCell id="eg5AnFYm-MPcN6h97bqV-9" style="edgeStyle=orthogonalEdgeStyle;rounded=0;orthogonalLoop=1;jettySize=auto;html=1;entryX=0.5;entryY=0;entryDx=0;entryDy=0;" edge="1" parent="1" source="eg5AnFYm-MPcN6h97bqV-1" target="eg5AnFYm-MPcN6h97bqV-2">
          <mxGeometry relative="1" as="geometry" />
        </mxCell>
        <mxCell id="eg5AnFYm-MPcN6h97bqV-1" value="Town" style="rounded=1;whiteSpace=wrap;html=1;" vertex="1" parent="1">
          <mxGeometry x="220" y="30" width="200" height="120" as="geometry" />
        </mxCell>
        <mxCell id="eg5AnFYm-MPcN6h97bqV-24" style="edgeStyle=orthogonalEdgeStyle;rounded=0;orthogonalLoop=1;jettySize=auto;html=1;entryX=0.75;entryY=0;entryDx=0;entryDy=0;" edge="1" parent="1" source="eg5AnFYm-MPcN6h97bqV-2" target="eg5AnFYm-MPcN6h97bqV-10">
          <mxGeometry relative="1" as="geometry" />
        </mxCell>
        <mxCell id="eg5AnFYm-MPcN6h97bqV-25" style="edgeStyle=orthogonalEdgeStyle;rounded=0;orthogonalLoop=1;jettySize=auto;html=1;" edge="1" parent="1" source="eg5AnFYm-MPcN6h97bqV-2" target="eg5AnFYm-MPcN6h97bqV-14">
          <mxGeometry relative="1" as="geometry" />
        </mxCell>
        <mxCell id="eg5AnFYm-MPcN6h97bqV-26" style="edgeStyle=orthogonalEdgeStyle;rounded=0;orthogonalLoop=1;jettySize=auto;html=1;entryX=0.5;entryY=0;entryDx=0;entryDy=0;" edge="1" parent="1" source="eg5AnFYm-MPcN6h97bqV-2" target="eg5AnFYm-MPcN6h97bqV-13">
          <mxGeometry relative="1" as="geometry" />
        </mxCell>
        <mxCell id="eg5AnFYm-MPcN6h97bqV-2" value="&#xa;&lt;span style=&quot;color: rgb(0, 0, 0); font-family: Helvetica; font-size: 12px; font-style: normal; font-variant-ligatures: normal; font-variant-caps: normal; font-weight: 400; letter-spacing: normal; orphans: 2; text-align: center; text-indent: 0px; text-transform: none; widows: 2; word-spacing: 0px; -webkit-text-stroke-width: 0px; white-space: normal; background-color: rgb(251, 251, 251); text-decoration-thickness: initial; text-decoration-style: initial; text-decoration-color: initial; display: inline !important; float: none;&quot;&gt;categories&lt;/span&gt;&#xa;&#xa;" style="rounded=1;whiteSpace=wrap;html=1;" vertex="1" parent="1">
          <mxGeometry x="80" y="220" width="140" height="80" as="geometry" />
        </mxCell>
        <mxCell id="eg5AnFYm-MPcN6h97bqV-34" style="edgeStyle=orthogonalEdgeStyle;rounded=0;orthogonalLoop=1;jettySize=auto;html=1;entryX=0.5;entryY=0;entryDx=0;entryDy=0;" edge="1" parent="1" source="eg5AnFYm-MPcN6h97bqV-3" target="eg5AnFYm-MPcN6h97bqV-20">
          <mxGeometry relative="1" as="geometry" />
        </mxCell>
        <mxCell id="eg5AnFYm-MPcN6h97bqV-3" value="&#xa;&lt;span style=&quot;color: rgb(0, 0, 0); font-family: Helvetica; font-size: 12px; font-style: normal; font-variant-ligatures: normal; font-variant-caps: normal; font-weight: 400; letter-spacing: normal; orphans: 2; text-align: center; text-indent: 0px; text-transform: none; widows: 2; word-spacing: 0px; -webkit-text-stroke-width: 0px; white-space: normal; background-color: rgb(251, 251, 251); text-decoration-thickness: initial; text-decoration-style: initial; text-decoration-color: initial; display: inline !important; float: none;&quot;&gt;categories&lt;/span&gt;&#xa;&#xa;" style="rounded=1;whiteSpace=wrap;html=1;" vertex="1" parent="1">
          <mxGeometry x="630" y="220" width="140" height="80" as="geometry" />
        </mxCell>
        <mxCell id="eg5AnFYm-MPcN6h97bqV-32" style="edgeStyle=orthogonalEdgeStyle;rounded=0;orthogonalLoop=1;jettySize=auto;html=1;entryX=0.5;entryY=0;entryDx=0;entryDy=0;" edge="1" parent="1" source="eg5AnFYm-MPcN6h97bqV-4" target="eg5AnFYm-MPcN6h97bqV-16">
          <mxGeometry relative="1" as="geometry" />
        </mxCell>
        <mxCell id="eg5AnFYm-MPcN6h97bqV-33" style="edgeStyle=orthogonalEdgeStyle;rounded=0;orthogonalLoop=1;jettySize=auto;html=1;entryX=0.5;entryY=0;entryDx=0;entryDy=0;" edge="1" parent="1" source="eg5AnFYm-MPcN6h97bqV-4" target="eg5AnFYm-MPcN6h97bqV-17">
          <mxGeometry relative="1" as="geometry" />
        </mxCell>
        <mxCell id="eg5AnFYm-MPcN6h97bqV-4" value="&#xa;&lt;span style=&quot;color: rgb(0, 0, 0); font-family: Helvetica; font-size: 12px; font-style: normal; font-variant-ligatures: normal; font-variant-caps: normal; font-weight: 400; letter-spacing: normal; orphans: 2; text-align: center; text-indent: 0px; text-transform: none; widows: 2; word-spacing: 0px; -webkit-text-stroke-width: 0px; white-space: normal; background-color: rgb(251, 251, 251); text-decoration-thickness: initial; text-decoration-style: initial; text-decoration-color: initial; display: inline !important; float: none;&quot;&gt;categories&lt;/span&gt;&#xa;&#xa;" style="rounded=1;whiteSpace=wrap;html=1;" vertex="1" parent="1">
          <mxGeometry x="460" y="220" width="140" height="80" as="geometry" />
        </mxCell>
        <mxCell id="eg5AnFYm-MPcN6h97bqV-27" style="edgeStyle=orthogonalEdgeStyle;rounded=0;orthogonalLoop=1;jettySize=auto;html=1;" edge="1" parent="1" source="eg5AnFYm-MPcN6h97bqV-5" target="eg5AnFYm-MPcN6h97bqV-12">
          <mxGeometry relative="1" as="geometry" />
        </mxCell>
        <mxCell id="eg5AnFYm-MPcN6h97bqV-29" style="edgeStyle=orthogonalEdgeStyle;rounded=0;orthogonalLoop=1;jettySize=auto;html=1;entryX=0.5;entryY=0;entryDx=0;entryDy=0;" edge="1" parent="1" source="eg5AnFYm-MPcN6h97bqV-5" target="eg5AnFYm-MPcN6h97bqV-11">
          <mxGeometry relative="1" as="geometry" />
        </mxCell>
        <mxCell id="eg5AnFYm-MPcN6h97bqV-5" value="&#xa;&lt;span style=&quot;color: rgb(0, 0, 0); font-family: Helvetica; font-size: 12px; font-style: normal; font-variant-ligatures: normal; font-variant-caps: normal; font-weight: 400; letter-spacing: normal; orphans: 2; text-align: center; text-indent: 0px; text-transform: none; widows: 2; word-spacing: 0px; -webkit-text-stroke-width: 0px; white-space: normal; background-color: rgb(251, 251, 251); text-decoration-thickness: initial; text-decoration-style: initial; text-decoration-color: initial; display: inline !important; float: none;&quot;&gt;categories&lt;/span&gt;&#xa;&#xa;" style="rounded=1;whiteSpace=wrap;html=1;" vertex="1" parent="1">
          <mxGeometry x="250" y="220" width="140" height="80" as="geometry" />
        </mxCell>
        <mxCell id="eg5AnFYm-MPcN6h97bqV-10" value="products" style="rounded=1;whiteSpace=wrap;html=1;" vertex="1" parent="1">
          <mxGeometry x="10" y="370" width="70" height="50" as="geometry" />
        </mxCell>
        <mxCell id="eg5AnFYm-MPcN6h97bqV-11" value="products" style="rounded=1;whiteSpace=wrap;html=1;" vertex="1" parent="1">
          <mxGeometry x="300" y="370" width="70" height="50" as="geometry" />
        </mxCell>
        <mxCell id="eg5AnFYm-MPcN6h97bqV-12" value="products" style="rounded=1;whiteSpace=wrap;html=1;" vertex="1" parent="1">
          <mxGeometry x="230" y="370" width="70" height="50" as="geometry" />
        </mxCell>
        <mxCell id="eg5AnFYm-MPcN6h97bqV-13" value="products" style="rounded=1;whiteSpace=wrap;html=1;" vertex="1" parent="1">
          <mxGeometry x="150" y="370" width="70" height="50" as="geometry" />
        </mxCell>
        <mxCell id="eg5AnFYm-MPcN6h97bqV-14" value="products" style="rounded=1;whiteSpace=wrap;html=1;" vertex="1" parent="1">
          <mxGeometry x="80" y="370" width="70" height="50" as="geometry" />
        </mxCell>
        <mxCell id="eg5AnFYm-MPcN6h97bqV-15" value="products" style="rounded=1;whiteSpace=wrap;html=1;" vertex="1" parent="1">
          <mxGeometry x="370" y="370" width="70" height="50" as="geometry" />
        </mxCell>
        <mxCell id="eg5AnFYm-MPcN6h97bqV-16" value="products" style="rounded=1;whiteSpace=wrap;html=1;" vertex="1" parent="1">
          <mxGeometry x="450" y="370" width="70" height="50" as="geometry" />
        </mxCell>
        <mxCell id="eg5AnFYm-MPcN6h97bqV-17" value="products" style="rounded=1;whiteSpace=wrap;html=1;" vertex="1" parent="1">
          <mxGeometry x="590" y="370" width="70" height="50" as="geometry" />
        </mxCell>
        <mxCell id="eg5AnFYm-MPcN6h97bqV-18" value="products" style="rounded=1;whiteSpace=wrap;html=1;" vertex="1" parent="1">
          <mxGeometry x="520" y="370" width="70" height="50" as="geometry" />
        </mxCell>
        <mxCell id="eg5AnFYm-MPcN6h97bqV-20" value="products" style="rounded=1;whiteSpace=wrap;html=1;" vertex="1" parent="1">
          <mxGeometry x="670" y="370" width="70" height="50" as="geometry" />
        </mxCell>
        <mxCell id="eg5AnFYm-MPcN6h97bqV-21" value="products" style="rounded=1;whiteSpace=wrap;html=1;" vertex="1" parent="1">
          <mxGeometry x="810" y="370" width="70" height="50" as="geometry" />
        </mxCell>
        <mxCell id="eg5AnFYm-MPcN6h97bqV-22" value="products" style="rounded=1;whiteSpace=wrap;html=1;" vertex="1" parent="1">
          <mxGeometry x="740" y="370" width="70" height="50" as="geometry" />
        </mxCell>
        <mxCell id="eg5AnFYm-MPcN6h97bqV-30" style="edgeStyle=orthogonalEdgeStyle;rounded=0;orthogonalLoop=1;jettySize=auto;html=1;entryX=0.4;entryY=-0.04;entryDx=0;entryDy=0;entryPerimeter=0;" edge="1" parent="1" source="eg5AnFYm-MPcN6h97bqV-5" target="eg5AnFYm-MPcN6h97bqV-15">
          <mxGeometry relative="1" as="geometry" />
        </mxCell>
        <mxCell id="eg5AnFYm-MPcN6h97bqV-31" style="edgeStyle=orthogonalEdgeStyle;rounded=0;orthogonalLoop=1;jettySize=auto;html=1;entryX=0.4;entryY=0.04;entryDx=0;entryDy=0;entryPerimeter=0;" edge="1" parent="1" source="eg5AnFYm-MPcN6h97bqV-4" target="eg5AnFYm-MPcN6h97bqV-18">
          <mxGeometry relative="1" as="geometry" />
        </mxCell>
        <mxCell id="eg5AnFYm-MPcN6h97bqV-36" style="edgeStyle=orthogonalEdgeStyle;rounded=0;orthogonalLoop=1;jettySize=auto;html=1;entryX=0.4;entryY=-0.06;entryDx=0;entryDy=0;entryPerimeter=0;" edge="1" parent="1" source="eg5AnFYm-MPcN6h97bqV-3" target="eg5AnFYm-MPcN6h97bqV-22">
          <mxGeometry relative="1" as="geometry" />
        </mxCell>
        <mxCell id="eg5AnFYm-MPcN6h97bqV-37" style="edgeStyle=orthogonalEdgeStyle;rounded=0;orthogonalLoop=1;jettySize=auto;html=1;entryX=0.4;entryY=0.08;entryDx=0;entryDy=0;entryPerimeter=0;" edge="1" parent="1" source="eg5AnFYm-MPcN6h97bqV-3" target="eg5AnFYm-MPcN6h97bqV-21">
          <mxGeometry relative="1" as="geometry" />
        </mxCell>
        <mxCell id="eg5AnFYm-MPcN6h97bqV-41" style="edgeStyle=orthogonalEdgeStyle;rounded=0;orthogonalLoop=1;jettySize=auto;html=1;entryX=0.5;entryY=0;entryDx=0;entryDy=0;" edge="1" parent="1" source="eg5AnFYm-MPcN6h97bqV-38" target="eg5AnFYm-MPcN6h97bqV-4">
          <mxGeometry relative="1" as="geometry" />
        </mxCell>
        <mxCell id="eg5AnFYm-MPcN6h97bqV-38" value="Town" style="rounded=1;whiteSpace=wrap;html=1;" vertex="1" parent="1">
          <mxGeometry x="470" y="30" width="200" height="120" as="geometry" />
        </mxCell>
      </root>
    </mxGraphModel>
  </diagram>
</mxfile>
